<?xml version="1.0" encoding="utf-8"?>
<!-- Generator: Adobe Illustrator 22.0.1, SVG Export Plug-In . SVG Version: 6.00 Build 0)  -->
<svg version="1.1" id="图层_1" xmlns="http://www.w3.org/2000/svg" xmlns:xlink="http://www.w3.org/1999/xlink" x="0px" y="0px"
	 width="297px" height="270.4px" viewBox="0 0 297 270.4" style="enable-background:new 0 0 297 270.4;" xml:space="preserve">
<style type="text/css">
	.st0{fill:#FFC7BD;}
	.st1{fill:#E72F20;}
	.st2{fill:url(#形状_6_);}
	.st3{fill:url(#形状_7_);}
	.st4{fill:#FFFFFF;}
</style>
<title>分组 3</title>
<desc>Created with Sketch.</desc>
<g id="页面-4">
	<g id="分组-3">
		<path id="_x201C_" class="st0" d="M20,192.4v3c-1.6,0.5-2.8,1.4-3.8,2.7c-0.9,1.2-1.3,2.5-1.3,3.9c0.2-0.1,0.7-0.2,1.3-0.2
			c1,0,1.9,0.3,2.6,1c0.6,0.7,1,1.6,1,2.7c0,1.1-0.4,2-1.1,2.7c-0.7,0.7-1.6,1-2.7,1c-1.4,0-2.4-0.6-3.2-1.7
			c-0.8-1.1-1.1-2.6-1.1-4.2c0-2.7,0.7-5.1,2.2-7C15.4,194.4,17.4,193,20,192.4z M8.4,192.4v3c-1.6,0.5-2.8,1.4-3.7,2.7
			c-0.9,1.2-1.4,2.5-1.4,4c0.2-0.1,0.7-0.2,1.4-0.2c0.9,0,1.8,0.3,2.5,1c0.7,0.7,1.1,1.6,1.1,2.7c0,1.1-0.4,2-1,2.7
			c-0.7,0.7-1.6,1-2.8,1c-1.4,0-2.4-0.6-3.2-1.7c-0.8-1.1-1.2-2.5-1.2-4.2c0-2.7,0.8-5.1,2.3-7C3.8,194.4,5.8,193,8.4,192.4z"/>
		<path id="_x201D_" class="st0" d="M292.6,253.4c1.3,0,2.4,0.5,3.2,1.6c0.8,1.1,1.2,2.5,1.2,4.3c0,2.7-0.8,5-2.3,7
			c-1.5,1.9-3.6,3.3-6.1,4v-3c1.5-0.5,2.8-1.4,3.7-2.6c0.9-1.3,1.3-2.6,1.3-4.1c-0.2,0.1-0.7,0.2-1.3,0.2c-1,0-1.8-0.4-2.5-1.1
			c-0.7-0.7-1.1-1.6-1.1-2.6c0-1.2,0.4-2.1,1.1-2.7C290.5,253.7,291.4,253.4,292.6,253.4z M281,253.4c1.3,0,2.4,0.5,3.2,1.6
			c0.8,1.1,1.2,2.5,1.2,4.3c0,2.7-0.8,5-2.3,7c-1.5,1.9-3.6,3.3-6.1,4v-3c1.5-0.5,2.7-1.4,3.6-2.6c0.9-1.3,1.4-2.6,1.4-4.1
			c-0.2,0.1-0.7,0.2-1.3,0.2c-1,0-1.8-0.4-2.5-1.1c-0.7-0.7-1.1-1.6-1.1-2.6c0-1.2,0.3-2.1,1-2.7C278.9,253.7,279.8,253.4,281,253.4
			z"/>
	</g>
</g>
<g id="页面-4_5_">
	<g id="花-copy">
		<g id="分组">
			<path id="形状" class="st1" d="M9.3,167.6c-1.1,0-2.3-0.2-3.6-0.6c-0.2,0-1.2-0.4-2.3-1.3c-0.7-0.6-1.3-1.3-1.8-2.2
				c-0.6-1-1.1-2.2-1.4-3.6c0-0.2-0.8-3.9,1.1-5.9c0.1-0.1,0.3-0.2,0.5-0.2c0,0,0.8,0,1.8,0.1c0.8,0.1,1.5,0.3,2,0.5
				c0.5-0.9,1.4-2.2,2.7-3c0.1-0.1,0.4-0.3,0.7-0.3c0.3,0,0.6,0.1,0.9,0.3c0,0,0.1,0,0.1,0.1c0.1,0.1,1.7,1.3,2.6,2.9
				c0.7-0.3,2-0.7,3.2-0.7c0.2,0,0.5,0,0.7,0c0.2,0,0.4,0.1,0.5,0.3c0.1,0.1,2.3,3.1-0.1,8.9c0,0-0.5,1.2-1.7,2.3
				C14,166.4,12.1,167.6,9.3,167.6L9.3,167.6z"/>
			<path id="路径" class="st1" d="M8.9,173.2c-0.4,0-0.7-0.3-0.7-0.7v-3.8c0-0.4,0.3-0.7,0.7-0.7c0.4,0,0.7,0.3,0.7,0.7v3.8
				C9.6,172.9,9.3,173.2,8.9,173.2L8.9,173.2z"/>
			<path id="路径_1_" class="st1" d="M12.1,172.4c0,0,1.8-2,5.2-1.9"/>
			<path id="路径_2_" class="st1" d="M12.6,172.8L12.6,172.8l-1-1c0.1-0.1,2-2.2,5.7-2.1c0.4,0,0.7,0.3,0.7,0.7
				c0,0.4-0.3,0.7-0.7,0.7c-1.3,0-2.5,0.2-3.5,0.8C13,172.4,12.6,172.8,12.6,172.8L12.6,172.8z"/>
			<path id="路径_3_" class="st1" d="M5.9,172.4c0,0-1.7-2-5.1-1.9"/>
			<path id="路径_4_" class="st1" d="M5.3,172.8c0,0-0.4-0.4-1.2-0.9c-1-0.6-2.1-0.8-3.4-0.8c0,0,0,0,0,0c-0.4,0-0.7-0.3-0.7-0.7
				c0-0.4,0.3-0.7,0.7-0.7h0c0.1,0,0.1,0,0.2,0c3.5,0,5.3,2.1,5.4,2.2L5.3,172.8L5.3,172.8L5.3,172.8z"/>
		</g>
	</g>
</g>
<g id="页面-4_4_">
	<g id="花-copy小">
		<g id="分组_1_">
			<path id="形状_4_" class="st1" d="M6.7,135.1c-0.8,0-1.7-0.1-2.6-0.4c-0.1,0-0.8-0.3-1.7-1c-0.5-0.4-0.9-1-1.3-1.6
				c-0.5-0.8-0.8-1.6-1-2.6c0-0.1-0.6-2.8,0.8-4.3c0.1-0.1,0.2-0.2,0.4-0.2c0,0,0.6,0,1.3,0.1c0.6,0.1,1.1,0.2,1.4,0.4
				c0.3-0.6,1-1.6,1.9-2.2c0.1-0.1,0.3-0.2,0.5-0.2c0.2,0,0.4,0.1,0.7,0.2c0,0,0,0,0.1,0c0.1,0,1.2,0.9,1.9,2.1
				c0.5-0.2,1.4-0.5,2.3-0.5c0.2,0,0.3,0,0.5,0c0.1,0,0.3,0.1,0.3,0.2c0.1,0.1,1.7,2.3-0.1,6.5c0,0-0.4,0.9-1.2,1.7
				C10.1,134.1,8.7,135.1,6.7,135.1L6.7,135.1z"/>
			<path id="路径_9_" class="st1" d="M6.4,139.1c-0.3,0-0.5-0.2-0.5-0.5v-2.7c0-0.3,0.2-0.5,0.5-0.5c0.3,0,0.5,0.2,0.5,0.5v2.7
				C6.9,138.9,6.7,139.1,6.4,139.1L6.4,139.1z"/>
			<path id="路径_8_" class="st1" d="M8.7,138.5c0,0,1.3-1.4,3.8-1.4"/>
			<path id="路径_7_" class="st1" d="M9.1,138.9L9.1,138.9l-0.7-0.7c0.1-0.1,1.5-1.6,4.1-1.6c0.3,0,0.5,0.2,0.5,0.5
				c0,0.3-0.2,0.5-0.5,0.5c-0.9,0-1.8,0.2-2.5,0.6C9.4,138.5,9.1,138.8,9.1,138.9L9.1,138.9z"/>
			<path id="路径_6_" class="st1" d="M4.2,138.5c0,0-1.2-1.4-3.7-1.4"/>
			<path id="路径_5_" class="st1" d="M3.9,138.8c0,0-0.3-0.3-0.8-0.6c-0.7-0.4-1.5-0.6-2.4-0.6c0,0,0,0,0,0
				c-0.3,0-0.5-0.2-0.5-0.5c0-0.3,0.2-0.5,0.5-0.5h0c0,0,0.1,0,0.1,0c2.5,0,3.9,1.5,3.9,1.6L3.9,138.8L3.9,138.8L3.9,138.8z"/>
		</g>
	</g>
</g>
<g id="页面-4_3_">
	<g id="赞-copy-2">
		
			<linearGradient id="形状_6_" gradientUnits="userSpaceOnUse" x1="-108.5541" y1="398.4549" x2="-107.5541" y2="399.4549" gradientTransform="matrix(13.7134 0 0 -13.5056 1487.7449 5393.9854)">
			<stop  offset="0" style="stop-color:#FE563F"/>
			<stop  offset="1" style="stop-color:#F29C6E"/>
		</linearGradient>
		<path id="形状_3_" class="st2" d="M13.1,8.2L13.1,8.2c0.3,0,0.6-0.3,0.6-0.6v-7c0,0,0,0,0,0c0-0.3-0.3-0.6-0.6-0.6c0,0,0,0,0,0
			h-1.6v8.2L13.1,8.2C13.1,8.2,13.1,8.2,13.1,8.2L13.1,8.2z M0.2,7.9C0.5,8.4,1,8.7,1.6,8.7c0,0,0.1,0,0.1,0l3.1,0
			c-0.2,0.6-0.3,1.3-0.3,2c0,0.5,0.1,0.9,0.2,1.4c0.2,0.9,1.1,1.7,2,1.2c0.2-0.6,0-5,3.7-5V0L2.8,0c0,0,0,0,0,0
			C2.5,0,2.2,0.1,1.9,0.3C1.7,0.4,1.5,0.7,1.4,0.9c0,0,0,0,0,0c0,0.1-0.1,0.1-0.1,0.2L0,6.7c0,0.1,0,0.1,0,0.2c0,0,0,0.1,0,0.1
			C0,7,0,7,0,7C0,7.4,0.1,7.7,0.2,7.9L0.2,7.9z"/>
	</g>
</g>
<g id="页面-4_2_">
	<g id="赞-copy">
		
			<linearGradient id="形状_7_" gradientUnits="userSpaceOnUse" x1="-107.7569" y1="394.7681" x2="-106.7569" y2="395.7681" gradientTransform="matrix(12.7348 0 0 -13.9633 1373.084 5589.0923)">
			<stop  offset="0" style="stop-color:#FE563F"/>
			<stop  offset="1" style="stop-color:#F29C6E"/>
		</linearGradient>
		<path id="形状_2_" class="st3" d="M11.9,67.5H8.4C9.7,62.2,7.4,62,7.4,62c-1,0-0.8,0.8-0.8,1c0,2.6-2.6,4.6-2.6,4.6v7.4
			c0,0.7,0.9,1,1.3,1h5.3c0.5,0,0.9-1.4,0.9-1.4c1.3-4.7,1.3-6.1,1.3-6.1C12.7,67.5,11.9,67.5,11.9,67.5L11.9,67.5z M2.5,67.6H0.4
			C0,67.6,0,68,0,68l0.4,7.4c0,0.5,0.4,0.5,0.4,0.5h1.8c0.4,0,0.4-0.3,0.4-0.3v-7.5C3.1,67.5,2.5,67.6,2.5,67.6L2.5,67.6z"/>
	</g>
</g>
<g id="页面-4_1_">
	<g id="赞">
		<path id="形状_1_" class="st4" d="M13.1,39.3L13.1,39.3c0.3,0,0.6-0.3,0.6-0.6v-7c0,0,0,0,0,0c0-0.3-0.3-0.6-0.6-0.6
			c0,0,0,0,0,0h-1.6v8.2L13.1,39.3C13.1,39.3,13.1,39.3,13.1,39.3L13.1,39.3z M0.2,39c0.3,0.5,0.8,0.8,1.4,0.8c0,0,0.1,0,0.1,0
			l3.1,0c-0.2,0.6-0.3,1.3-0.3,2c0,0.5,0.1,0.9,0.2,1.4c0.2,0.9,1.1,1.7,2,1.2c0.2-0.6,0-5,3.7-5v-8.3l-7.5,0c0,0,0,0,0,0
			c-0.3,0-0.6,0.1-0.9,0.3c-0.2,0.2-0.4,0.4-0.6,0.6c0,0,0,0,0,0c0,0.1-0.1,0.1-0.1,0.2L0,37.8c0,0.1,0,0.1,0,0.2C0,38,0,38,0,38
			c0,0,0,0.1,0,0.1C0,38.5,0.1,38.8,0.2,39L0.2,39z"/>
	</g>
</g>
<g id="页面-4_6_">
	<g id="赞2">
		<path id="形状_5_" class="st4" d="M11.9,98.6H8.4C9.7,93.3,7.4,93,7.4,93c-1,0-0.8,0.8-0.8,1c0,2.6-2.6,4.6-2.6,4.6v7.4
			c0,0.7,0.9,1,1.3,1h5.3c0.5,0,0.9-1.4,0.9-1.4c1.3-4.7,1.3-6.1,1.3-6.1C12.7,98.6,11.9,98.6,11.9,98.6L11.9,98.6z M2.5,98.6H0.4
			C0,98.6,0,99.1,0,99.1l0.4,7.4c0,0.5,0.4,0.5,0.4,0.5h1.8c0.4,0,0.4-0.3,0.4-0.3v-7.5C3.1,98.6,2.5,98.6,2.5,98.6L2.5,98.6z"/>
	</g>
</g>
</svg>
