<?xml version="1.0" standalone="no"?><!DOCTYPE svg PUBLIC "-//W3C//DTD SVG 1.1//EN" "http://www.w3.org/Graphics/SVG/1.1/DTD/svg11.dtd"><svg t="1586144206950" class="icon" viewBox="0 0 1024 1024" version="1.1" xmlns="http://www.w3.org/2000/svg" p-id="2560" xmlns:xlink="http://www.w3.org/1999/xlink" width="200" height="200"><defs><style type="text/css"></style></defs><path d="M680.77037 244.622222c-21.807407-25.6-50.251852-35.081481-79.644444-24.651852-20.859259 7.585185-45.511111 47.407407-49.303704 73.007408-3.792593 24.651852-0.948148 43.614815 7.585185 54.044444 9.481481 10.42963 26.548148 16.118519 52.148149 16.118519s69.214815-18.014815 79.644444-36.977778c15.17037-26.548148 11.377778-54.992593-10.42963-81.540741z m-100.503703 44.562963c8.533333-22.755556 22.755556-31.288889 28.444444-34.133333 1.896296-0.948148 4.740741-0.948148 6.637037-0.948148 10.42963 0 21.807407 6.637037 31.288889 18.014815 14.222222 17.066667 15.17037 32.237037 10.42963 40.77037-3.792593 5.688889-14.222222 18.014815-37.925926 22.755555-7.585185 1.896296-18.962963 2.844444-29.392593 2.844445-9.481481 0-15.17037-1.896296-17.066667-2.844445l-0.948148-0.948148c-1.896296-6.637037 0.948148-23.703704 8.533334-45.511111z m32.237037 70.162963z" fill="#FD9B13" p-id="2561"></path><path d="M567.940741 288.237037c-1.896296-29.392593-25.6-77.748148-48.355556-88.177778-32.237037-15.17037-64.474074-8.533333-92.918518 18.962963-28.444444 27.496296-36.02963 59.733333-21.807408 91.970371 9.481481 22.755556 57.837037 48.355556 87.22963 50.251851 5.688889 0 10.42963 0.948148 15.17037 0.948149 20.859259 0 36.977778-4.740741 46.45926-13.274074 11.377778-10.42963 16.118519-31.288889 14.222222-60.681482z m-27.496297 47.407407l-0.948148 0.948149c-8.533333 3.792593-29.392593 1.896296-54.044444-4.740741-27.496296-7.585185-37.925926-24.651852-41.718519-31.288889-5.688889-12.325926 0.948148-30.340741 16.118519-46.459259 11.377778-11.377778 24.651852-18.014815 36.029629-18.014815 3.792593 0 7.585185 0.948148 10.42963 2.844444 6.637037 3.792593 22.755556 15.17037 29.392593 41.718519 8.533333 25.6 9.481481 46.459259 4.74074 54.992592z" fill="#FDB813" p-id="2562"></path><path d="M572.681481 333.748148h-15.17037v27.496296h47.407408c0-15.17037-14.222222-27.496296-32.237038-27.496296z" fill="#FDB813" p-id="2563"></path><path d="M543.288889 333.748148c-18.014815 0-32.237037 12.325926-32.237037 27.496296h47.407407v-27.496296h-15.17037z" fill="#FD9B13" p-id="2564"></path><path d="M333.748148 428.562963h223.762963V862.814815H333.748148z" fill="#F12A3F" p-id="2565"></path><path d="M333.748148 428.562963h223.762963v126.103704H333.748148z" fill="#C92334" p-id="2566"></path><path d="M557.511111 428.562963h223.762963V862.814815H557.511111z" fill="#C92334" p-id="2567"></path><path d="M315.733333 361.244444h241.777778v154.548149H315.733333zM557.511111 361.244444h241.777778v154.548149H557.511111z" fill="#F12A3F" p-id="2568"></path><path d="M510.103704 361.244444h47.407407V862.814815h-47.407407z" fill="#FDB813" p-id="2569"></path><path d="M557.511111 361.244444h47.407408V862.814815h-47.407408z" fill="#FD9B13" p-id="2570"></path></svg>