<?xml version="1.0" standalone="no"?><!DOCTYPE svg PUBLIC "-//W3C//DTD SVG 1.1//EN" "http://www.w3.org/Graphics/SVG/1.1/DTD/svg11.dtd"><svg t="1586144306467" class="icon" viewBox="0 0 1024 1024" version="1.1" xmlns="http://www.w3.org/2000/svg" p-id="10886" xmlns:xlink="http://www.w3.org/1999/xlink" width="200" height="200"><defs><style type="text/css"></style></defs><path d="M512.5 952.6H786s-13.6-191.3-200.4-221c-50.9-3.7-73.2-2.3-73.2-2.3v0.2c0.1 158.7 0.1 223.1 0.1 223.1z" fill="#484848" p-id="10887"></path><path d="M511.4 952.6H239s13.6-191.5 199.5-221.3c50.6-3.7 72.9-2.3 72.9-2.3v223.6z" fill="#333333" p-id="10888"></path><path d="M443.7 619.3h145.1v257.2H443.7V619.3z" fill="#FFDDB8" p-id="10889"></path><path d="M443.7 614.8h145.1v45.1l-145.1 88V614.8z" fill="#E5C6A5" p-id="10890"></path><path d="M512.3 952.4s31.2 0.2 46 0.2c6.1-9.9 77.9-204 77.3-207.1-0.3-1.9-94.2 18.2-94.2 18.2l-29.1-20.3v209z" fill="#FFFFFF" p-id="10891"></path><path d="M519.1 952.4s-31.2 0.2-46 0.2c-6.1-9.9-77.9-203.7-77.3-206.8 0.3-1.9 96.4 17.7 96.4 17.7l26.9-16.4v205.3z" fill="#E0ECFF" p-id="10892"></path><path d="M592.9 695.4l49.1 40.3s1 114.1 0 109.8c-1-4.3-125.1-98.6-125.1-98.6l76-51.5z" fill="#FFFFFF" p-id="10893" data-spm-anchor-id="a313x.7781069.0.i3" class=""></path><path d="M440.8 695.4l-49.3 40.4s-1 114.2 0 109.9c1-4.3 125.6-98.7 125.6-98.7l-76.3-51.6z" fill="#FFFFFF" p-id="10894" data-spm-anchor-id="a313x.7781069.0.i2" class=""></path><path d="M512.5 199.9v443.9c60.1-3 132.8-43.5 167.1-108.4 17.6-33.3 19-71.6 19-113.2 0-122.8-79.6-222.3-186.1-222.3z" fill="#f29f69" p-id="10895" data-spm-anchor-id="a313x.7781069.0.i4" class=""></path><path d="M512.5 199.9v443.9c-60.1-3-132.8-43.5-167.1-108.4-17.6-33.3-19-71.6-19-113.2 0-122.8 79.6-222.3 186.1-222.3z" fill="#f29f69" p-id="10896" data-spm-anchor-id="a313x.7781069.0.i6" class=""></path><path d="M341 399.4c3.4-50.5 26.8-108.5 105.6-140.7 19 4.3 58.6 37.5 129 4.5 47.9-22.4 108.1 77.3 116.7 118.3 6.9 32.8-6.5 29.4 15.6 22.3 5-3.9 38-54.2-13.4-256.8C590.7 58.7 507 66.6 507 66.6S375.2 80.9 315 182.7c-16.6 90-20.3 158.6-8.4 208.3 11.1-27.6 24.8-16 34.4 8.4z" fill="#5C3E31" p-id="10897"></path><path d="M718 369.6c12 4 15.4 25.9 7.7 48.7-7.7 22.9-23.7 38.2-35.6 34.1-12-4-15.4-25.9-7.7-48.7 7.7-22.8 23.7-38.1 35.6-34.1z" fill="#f29f69" p-id="10898" data-spm-anchor-id="a313x.7781069.0.i7" class=""></path><path d="M309.1 368.6c-12 4.1-15.4 26.2-7.7 49.4s23.7 38.7 35.6 34.6c12-4.1 15.4-26.2 7.7-49.4s-23.6-38.7-35.6-34.6z" fill="#f29f69" p-id="10899" data-spm-anchor-id="a313x.7781069.0.i8" class=""></path><path d="M513 816.7s80 69.5 80.7 24.2v-78.6s-6.8-21.5-36.7 0c-41.7 28.5-44 30.2-44 30.2v24.2z" fill="#bd2832" p-id="10900" data-spm-anchor-id="a313x.7781069.0.i1" class="selected"></path><path d="M520.3 816.7s-80 70-80.7 24.4v-79.2s6.8-21.6 36.7 0c41.7 28.7 44 30.4 44 30.4v24.4z" fill="#bd2832" p-id="10901" data-spm-anchor-id="a313x.7781069.0.i9" class="selected"></path><path d="M312 793v159.6h-75.2s7.3-91.7 75.2-159.6zM787.8 952.6h-75.2V793c67.9 67.9 75.2 159.6 75.2 159.6z" fill="#E0ECFF" p-id="10902"></path></svg>